<svg width="14" height="15" viewBox="0 0 14 15" fill="none" xmlns="http://www.w3.org/2000/svg">
<path d="M11.2138 6.85775L4.17007 1.35618C4.15166 1.34169 4.12954 1.33269 4.10625 1.3302C4.08296 1.32772 4.05944 1.33185 4.03839 1.34213C4.01734 1.35241 3.99962 1.36842 3.98726 1.38832C3.97489 1.40821 3.9684 1.4312 3.96851 1.45462V2.66243C3.96851 2.739 4.00444 2.81243 4.06382 2.85931L9.68882 7.2515L4.06382 11.6437C4.00288 11.6906 3.96851 11.764 3.96851 11.8406V13.0484C3.96851 13.1531 4.08882 13.2109 4.17007 13.1468L11.2138 7.64525C11.2737 7.59855 11.3221 7.53881 11.3554 7.47058C11.3887 7.40235 11.4061 7.32742 11.4061 7.2515C11.4061 7.17557 11.3887 7.10064 11.3554 7.03241C11.3221 6.96418 11.2737 6.90444 11.2138 6.85775Z" fill="white"/>
</svg>
